<svg width="49" height="44" viewBox="0 0 49 44" fill="none" xmlns="http://www.w3.org/2000/svg">
<g filter="url(#filter0_di_44842_5012)">
<path fill-rule="evenodd" clip-rule="evenodd" d="M47.3606 11.8712C47.3606 5.32553 42.0351 0 35.4894 0C31.1811 0 27.4014 2.30705 25.3209 5.7506C25.2478 5.701 25.1659 5.66203 25.076 5.63655C24.2684 5.40749 23.2414 5.12471 22.3147 4.97454C21.2942 4.80917 20.4165 4.82979 19.7372 4.84574L19.7371 4.84575C19.5565 4.84999 19.3899 4.8539 19.2384 4.8539C9.18161 4.8539 1 13.0355 1 23.0923C1 26.6904 2.04406 30.1671 4.01881 33.1474C4.16577 33.3689 4.19734 33.6478 4.10383 33.8968L2.14116 39.1214C1.89069 39.7882 2.54209 40.4396 3.20886 40.1891L8.43348 38.2264C8.68205 38.1321 8.96138 38.1645 9.18282 38.3114C12.1632 40.2862 15.6403 41.3303 19.2384 41.3303C28.4897 41.3303 36.2208 34.3738 37.3153 25.314C37.3456 25.0384 37.3932 24.7388 37.4422 24.4307C37.4877 24.1443 37.5344 23.8504 37.5695 23.5614C39.162 23.2809 40.6779 22.6782 42.0331 21.7786C42.2549 21.6313 42.5342 21.5989 42.7832 21.6932L45.1222 22.5718C45.789 22.8222 46.4404 22.1709 46.1899 21.5041L45.3114 19.1654C45.2178 18.9165 45.2494 18.6371 45.3968 18.4153C46.6813 16.4798 47.3606 14.2168 47.3606 11.8712ZM32.1268 23.2575C28.4459 22.1686 25.5047 19.3392 24.2608 15.7269C23.8158 16.0304 22.8681 15.9336 22.1172 15.6271C20.4448 14.9239 19.1329 14.5182 17.4904 15.6822C16.2591 16.534 14.7677 17.9594 14.6557 19.922L14.646 20.1143L14.646 20.1146C14.5659 21.6034 14.3992 24.7014 18.5021 25.1277C19.186 25.1995 19.7442 25.2025 20.1936 25.2049H20.1936L20.2049 25.2049C21.0119 25.2083 21.2397 25.2284 21.443 25.3997C21.6293 25.5594 21.7108 25.9431 21.6659 26.462C21.6554 26.5967 21.634 26.7255 21.6131 26.8512L21.6071 26.8874C21.3575 28.3886 21.6751 29.4519 24.0629 30.7689L24.0638 30.7695C24.7058 31.1249 25.7783 31.7187 25.9187 31.885C25.9364 31.9172 25.9484 31.9515 25.9617 31.9898L25.9618 31.9901C25.9664 32.003 25.971 32.0164 25.9762 32.0303C26.0326 32.1809 26.1012 32.3632 26.2156 32.5924C26.5283 33.2404 27.1283 33.613 27.8112 33.613C27.9541 33.613 28.1008 33.5967 28.249 33.5632C29.2481 33.3377 30.3235 32.2735 30.3235 30.4701C30.3235 29.3915 30.5634 28.0687 30.7565 27.0064C30.838 26.556 30.9124 26.1431 30.9635 25.7896C30.9957 25.5563 31.4155 24.8691 31.7245 24.3634L31.7295 24.3551C31.8849 24.1008 32.0254 23.6467 32.1268 23.2575ZM23.7948 13.9184C23.6787 13.2532 23.6182 12.5692 23.6182 11.8712C23.6182 10.9627 23.7208 10.0776 23.915 9.22707C22.964 9.0458 21.6087 8.79353 21.4054 8.76455C21.3933 8.76293 21.3807 8.76172 21.3674 8.76051C20.6605 8.65525 19.9444 8.60222 19.2384 8.60222C19.0833 8.60222 18.9289 8.60476 18.7751 8.6098C18.3389 9.19363 18.1207 9.73132 18.1266 10.2194C18.1468 11.3427 18.4987 12.2021 19.172 12.7738C19.645 13.1753 20.5133 13.6122 21.9652 13.4103C22.2047 13.372 23.1842 13.5143 23.7948 13.9184ZM13.4223 36.354C13.7257 36.4876 14.0344 36.6113 14.348 36.7246C14.789 34.7353 13.5851 33.6869 12.8056 33.0102C12.5744 32.8097 12.3563 32.6202 12.2153 32.4457C12.0343 32.2207 12.0237 32.2073 12.2617 31.6749C12.4325 31.2927 12.6454 30.8164 12.6386 30.2111C12.6155 28.2498 11.079 27.7595 9.2997 27.1917L9.29969 27.1917L9.29907 27.1915L8.6774 26.991C8.57942 26.9589 8.27968 26.8606 8.0147 25.2553C7.72782 23.5176 6.19563 22.8813 4.75264 22.7384C4.74976 22.856 4.74832 22.974 4.74832 23.0923C4.74832 23.2169 4.75669 23.3394 4.76507 23.462C4.7703 23.5386 4.77554 23.6152 4.77873 23.6924C4.77865 23.7081 4.77652 23.7234 4.77439 23.7387C4.77132 23.7608 4.76825 23.7828 4.77139 23.806C4.77254 23.8146 4.77591 23.8221 4.77928 23.8296C4.78227 23.8363 4.78527 23.8431 4.78673 23.8505C5.07415 29.3631 8.44562 34.062 13.2144 36.2537C13.2226 36.2589 13.2294 36.2655 13.2361 36.2721C13.2441 36.2798 13.252 36.2875 13.2623 36.293C13.3141 36.3204 13.3681 36.3384 13.4223 36.354ZM6.70192 15.8588C6.54914 16.1226 6.40427 16.3914 6.26767 16.665C7.02386 16.9911 7.83531 17.1681 8.62479 17.1681C9.26625 17.1681 9.8913 17.0558 10.4551 16.8237C11.682 16.3187 12.4441 15.31 12.5464 14.0563C12.6613 12.6592 13.4249 12.1196 14.3091 11.4952C14.6866 11.229 15.0766 10.9532 15.3865 10.6108C15.8239 10.1328 15.9545 9.56627 15.8981 9.00006C15.4789 9.10077 15.0666 9.21943 14.6617 9.35469C14.6236 9.36272 14.5881 9.37787 14.552 9.3933L14.5518 9.39342C14.542 9.39759 14.5322 9.40178 14.5223 9.40585C11.2374 10.5414 8.49047 12.8221 6.75324 15.7742C6.75112 15.7778 6.74827 15.7806 6.74539 15.7836L6.74538 15.7836L6.74089 15.7883C6.73081 15.8002 6.72471 15.8137 6.7186 15.8272C6.71372 15.838 6.70884 15.8488 6.70192 15.8588Z" fill="white"/>
</g>
<path d="M37.4184 10.1643C37.4184 10.9119 36.8104 11.52 36.0627 11.52C35.911 11.52 35.765 11.4951 35.6287 11.4484C35.0938 11.2674 34.7075 10.7602 34.7075 10.1643C34.7075 9.56893 35.0938 9.06166 35.6287 8.88072C35.765 8.83402 35.911 8.80908 36.0627 8.80908C36.8104 8.80908 37.4184 9.41717 37.4184 10.1643Z" fill="url(#paint0_linear_44842_5012)"/>
<path d="M32.0546 12.2577C31.976 12.3516 31.8901 12.4402 31.7999 12.5209C31.3377 12.9321 30.7466 13.1497 30.0897 13.1497C28.4644 13.1497 27.1421 11.8274 27.1421 10.2021C27.1421 8.57682 28.4644 7.25452 30.0897 7.25452C30.6803 7.25452 31.2501 7.42856 31.7383 7.7586C32.1023 8.00428 32.1978 8.49935 31.9521 8.86335C31.7059 9.22789 31.2109 9.3234 30.8469 9.07719C30.6229 8.92649 30.3614 8.84637 30.0897 8.84637C29.342 8.84637 28.7339 9.45446 28.7339 10.2021C28.7339 10.9497 29.342 11.5578 30.0897 11.5578C30.4089 11.5575 30.6497 11.4541 30.8352 11.2347C31.1175 10.8977 31.62 10.8537 31.9564 11.1365C32.2933 11.4188 32.3374 11.9208 32.0546 12.2577ZM36.0634 13.1698C34.4706 13.1805 33.1082 11.8539 33.1163 10.2223C33.1081 8.59072 34.4707 7.26465 36.0634 7.27521C37.6887 7.27521 39.011 8.59698 39.011 10.2223C39.011 11.8475 37.6887 13.1698 36.0634 13.1698ZM43.0654 16.309C42.4403 16.3164 41.9835 16.3201 41.6465 16.3201C40.7763 16.3201 40.7047 16.2962 40.5991 16.2612C40.3465 16.1769 40.1491 15.9768 40.0722 15.7253C39.9422 15.3029 40.1475 15.0339 40.4325 14.6609C40.6506 14.3754 41.057 13.8432 41.7389 12.8695C41.9463 12.5724 42.0323 12.3665 42.0673 12.2391C42.1002 12.065 41.9385 11.9065 41.7649 11.908C41.6168 11.908 41.4884 12.0131 41.4598 12.158C41.3754 12.5894 40.9567 12.8706 40.5253 12.7857C40.094 12.7008 39.8133 12.2827 39.8982 11.8513C40.0727 10.9619 40.858 10.3162 41.7649 10.3162C42.9029 10.3062 43.834 11.3585 43.6401 12.4875C43.5588 12.9211 43.3641 13.3155 43.0426 13.7822C42.7815 14.1552 42.5592 14.4661 42.3719 14.724C42.5942 14.7219 42.824 14.7198 43.0453 14.7171C43.4862 14.7139 43.8454 15.0631 43.8513 15.503C43.8566 15.9423 43.5048 16.3031 43.0654 16.309Z" fill="url(#paint1_linear_44842_5012)"/>
<path d="M37.3852 10.1643C37.3852 10.9119 36.7772 11.52 36.0295 11.52C35.8778 11.52 35.7318 11.4951 35.5955 11.4484C35.0606 11.2674 34.6743 10.7602 34.6743 10.1643C34.6743 9.56893 35.0606 9.06166 35.5955 8.88072C35.7318 8.83402 35.8778 8.80908 36.0295 8.80908C36.7772 8.80908 37.3852 9.41717 37.3852 10.1643Z" fill="white"/>
<defs>
<filter id="filter0_di_44842_5012" x="0" y="0" width="49.3606" height="43.3303" filterUnits="userSpaceOnUse" color-interpolation-filters="sRGB">
<feFlood flood-opacity="0" result="BackgroundImageFix"/>
<feColorMatrix in="SourceAlpha" type="matrix" values="0 0 0 0 0 0 0 0 0 0 0 0 0 0 0 0 0 0 127 0" result="hardAlpha"/>
<feOffset dy="1"/>
<feGaussianBlur stdDeviation="0.5"/>
<feComposite in2="hardAlpha" operator="out"/>
<feColorMatrix type="matrix" values="0 0 0 0 0.129412 0 0 0 0 0.388235 0 0 0 0 0.152941 0 0 0 0.25 0"/>
<feBlend mode="normal" in2="BackgroundImageFix" result="effect1_dropShadow_44842_5012"/>
<feBlend mode="normal" in="SourceGraphic" in2="effect1_dropShadow_44842_5012" result="shape"/>
<feColorMatrix in="SourceAlpha" type="matrix" values="0 0 0 0 0 0 0 0 0 0 0 0 0 0 0 0 0 0 127 0" result="hardAlpha"/>
<feOffset dx="2" dy="2"/>
<feGaussianBlur stdDeviation="1"/>
<feComposite in2="hardAlpha" operator="arithmetic" k2="-1" k3="1"/>
<feColorMatrix type="matrix" values="0 0 0 0 1 0 0 0 0 1 0 0 0 0 1 0 0 0 0.15 0"/>
<feBlend mode="normal" in2="shape" result="effect2_innerShadow_44842_5012"/>
</filter>
<linearGradient id="paint0_linear_44842_5012" x1="36.063" y1="8.80908" x2="36.063" y2="11.52" gradientUnits="userSpaceOnUse">
<stop stop-color="#81C784"/>
<stop offset="1" stop-color="#4CAF50"/>
</linearGradient>
<linearGradient id="paint1_linear_44842_5012" x1="35.4967" y1="7.25452" x2="35.4967" y2="16.3201" gradientUnits="userSpaceOnUse">
<stop stop-color="#81C784"/>
<stop offset="1" stop-color="#4CAF50"/>
</linearGradient>
</defs>
</svg>
